<svg xmlns="http://www.w3.org/2000/svg" width="1920" height="1580"><path d="M-199,-199L-10,-202L169,-219Z" fill="#fcfed0" stroke="#fcfed0" stroke-width="1.51"/><path d="M-199,-199L169,-219L318,-237Z" fill="#f9fdca" stroke="#f9fdca" stroke-width="1.51"/><path d="M273,1787L-212,1799L832,1819Z" fill="#739b66" stroke="#739b66" stroke-width="1.51"/><path d="M318,-237L784,-196L906,-205Z" fill="#d5edb5" stroke="#d5edb5" stroke-width="1.51"/><path d="M906,-205L1071,-180L1447,-194Z" fill="#aedaa0" stroke="#aedaa0" stroke-width="1.51"/><path d="M1504,1810L1338,1811L1755,1814Z" fill="#136838" stroke="#136838" stroke-width="1.51"/><path d="M1338,1811L1146,1814L1755,1814Z" fill="#1a6e3d" stroke="#1a6e3d" stroke-width="1.51"/><path d="M906,-205L1447,-194L1831,-206Z" fill="#9ecc94" stroke="#9ecc94" stroke-width="1.51"/><path d="M318,-237L906,-205L1831,-206Z" fill="#b8e0a8" stroke="#b8e0a8" stroke-width="1.51"/><path d="M2089,1409L1939,1502L2114,1658Z" fill="#046033" stroke="#046033" stroke-width="1.51"/><path d="M1939,1502L1958,1658L2114,1658Z" fill="#005d32" stroke="#005d32" stroke-width="1.51"/><path d="M2112,1273L2089,1409L2114,1658Z" fill="#096034" stroke="#096034" stroke-width="1.51"/><path d="M2102,751L2042,856L2114,1006Z" fill="#38834d" stroke="#38834d" stroke-width="1.51"/><path d="M2071,1129L2112,1273L2114,1006Z" fill="#1d7440" stroke="#1d7440" stroke-width="1.51"/><path d="M318,-237L1831,-206L2127,-207Z" fill="#9cca94" stroke="#9cca94" stroke-width="1.51"/><path d="M1831,-206L1903,-183L2127,-207Z" fill="#87ab82" stroke="#87ab82" stroke-width="1.51"/><path d="M1987,1738L1755,1814L2128,1811Z" fill="#00542f" stroke="#00542f" stroke-width="1.51"/><path d="M2114,1658L1987,1738L2128,1811Z" fill="#00512e" stroke="#00512e" stroke-width="1.51"/><path d="M2112,1273L2114,1658L2128,1811Z" fill="#005931" stroke="#005931" stroke-width="1.51"/><path d="M2051,415L1928,465L2136,586Z" fill="#60975e" stroke="#60975e" stroke-width="1.51"/><path d="M1948,761L2102,751L2136,586Z" fill="#4b8d55" stroke="#4b8d55" stroke-width="1.51"/><path d="M1883,571L1948,761L2136,586Z" fill="#539459" stroke="#539459" stroke-width="1.51"/><path d="M2102,751L2114,1006L2136,586Z" fill="#418651" stroke="#418651" stroke-width="1.51"/><path d="M2112,1273L2128,1811L2136,586Z" fill="#186c3b" stroke="#186c3b" stroke-width="1.51"/><path d="M2114,1006L2112,1273L2136,586Z" fill="#2e7d48" stroke="#2e7d48" stroke-width="1.51"/><path d="M2061,-73L1957,134L2140,122Z" fill="#7da26d" stroke="#7da26d" stroke-width="1.51"/><path d="M1957,134L2045,259L2140,122Z" fill="#78a069" stroke="#78a069" stroke-width="1.51"/><path d="M2127,-207L2061,-73L2140,122Z" fill="#80a072" stroke="#80a072" stroke-width="1.51"/><path d="M2051,415L2136,586L2140,122Z" fill="#689660" stroke="#689660" stroke-width="1.51"/><path d="M2045,259L2051,415L2140,122Z" fill="#729c65" stroke="#729c65" stroke-width="1.51"/><path d="M1928,465L1883,571L2136,586Z" fill="#5c985d" stroke="#5c985d" stroke-width="1.51"/><path d="M1931,1317L2089,1409L2112,1273Z" fill="#116a38" stroke="#116a38" stroke-width="1.51"/><path d="M1903,-183L2061,-73L2127,-207Z" fill="#84a67c" stroke="#84a67c" stroke-width="1.51"/><path d="M1974,855L1926,1036L2042,856Z" fill="#35884d" stroke="#35884d" stroke-width="1.51"/><path d="M2071,1129L1931,1317L2112,1273Z" fill="#18703c" stroke="#18703c" stroke-width="1.51"/><path d="M1958,1658L1987,1738L2114,1658Z" fill="#005731" stroke="#005731" stroke-width="1.51"/><path d="M1926,1036L2071,1129L2114,1006Z" fill="#227d45" stroke="#227d45" stroke-width="1.51"/><path d="M2042,856L1926,1036L2114,1006Z" fill="#2e824a" stroke="#2e824a" stroke-width="1.51"/><path d="M1903,-183L1936,-79L2061,-73Z" fill="#85a97b" stroke="#85a97b" stroke-width="1.51"/><path d="M1936,-79L1957,134L2061,-73Z" fill="#83a872" stroke="#83a872" stroke-width="1.51"/><path d="M1948,761L2042,856L2102,751Z" fill="#418b53" stroke="#418b53" stroke-width="1.51"/><path d="M1900,1116L1931,1317L2071,1129Z" fill="#1c7840" stroke="#1c7840" stroke-width="1.51"/><path d="M1931,1317L1939,1502L2089,1409Z" fill="#0d6938" stroke="#0d6938" stroke-width="1.51"/><path d="M318,-237L550,-197L784,-196Z" fill="#def1b9" stroke="#def1b9" stroke-width="1.51"/><path d="M1948,761L1974,855L2042,856Z" fill="#3e8c52" stroke="#3e8c52" stroke-width="1.51"/><path d="M2045,259L1905,252L2051,415Z" fill="#709f65" stroke="#709f65" stroke-width="1.51"/><path d="M1926,1036L1900,1116L2071,1129Z" fill="#217f45" stroke="#217f45" stroke-width="1.51"/><path d="M1905,252L1928,465L2051,415Z" fill="#6ba064" stroke="#6ba064" stroke-width="1.51"/><path d="M1957,134L1905,252L2045,259Z" fill="#78a46a" stroke="#78a46a" stroke-width="1.51"/><path d="M1905,252L1778,402L1928,465Z" fill="#6ea666" stroke="#6ea666" stroke-width="1.51"/><path d="M1900,1116L1826,1212L1931,1317Z" fill="#1b7c41" stroke="#1b7c41" stroke-width="1.51"/><path d="M1883,571L1832,619L1948,761Z" fill="#549a5c" stroke="#549a5c" stroke-width="1.51"/><path d="M1832,619L1836,746L1948,761Z" fill="#4e9959" stroke="#4e9959" stroke-width="1.51"/><path d="M1936,-79L1766,108L1957,134Z" fill="#83ae72" stroke="#83ae72" stroke-width="1.51"/><path d="M1939,1502L1792,1611L1958,1658Z" fill="#006535" stroke="#006535" stroke-width="1.51"/><path d="M1781,988L1926,1036L1974,855Z" fill="#318b4d" stroke="#318b4d" stroke-width="1.51"/><path d="M1958,1658L1755,1814L1987,1738Z" fill="#005a31" stroke="#005a31" stroke-width="1.51"/><path d="M1447,-194L1640,-143L1831,-206Z" fill="#92bc89" stroke="#92bc89" stroke-width="1.51"/><path d="M1796,1327L1817,1502L1931,1317Z" fill="#11733b" stroke="#11733b" stroke-width="1.51"/><path d="M1766,-82L1766,108L1936,-79Z" fill="#88b277" stroke="#88b277" stroke-width="1.51"/><path d="M1931,1317L1817,1502L1939,1502Z" fill="#0b6d39" stroke="#0b6d39" stroke-width="1.51"/><path d="M1792,1611L1755,1814L1958,1658Z" fill="#016134" stroke="#016134" stroke-width="1.51"/><path d="M1836,746L1733,874L1974,855Z" fill="#419455" stroke="#419455" stroke-width="1.51"/><path d="M1733,874L1781,988L1974,855Z" fill="#399252" stroke="#399252" stroke-width="1.51"/><path d="M1948,761L1836,746L1974,855Z" fill="#449255" stroke="#449255" stroke-width="1.51"/><path d="M1817,1502L1792,1611L1939,1502Z" fill="#036a38" stroke="#036a38" stroke-width="1.51"/><path d="M1815,248L1905,252L1957,134Z" fill="#7aa96b" stroke="#7aa96b" stroke-width="1.51"/><path d="M1766,108L1815,248L1957,134Z" fill="#7ead6f" stroke="#7ead6f" stroke-width="1.51"/><path d="M1815,248L1778,402L1905,252Z" fill="#76aa6a" stroke="#76aa6a" stroke-width="1.51"/><path d="M1826,1212L1796,1327L1931,1317Z" fill="#17783e" stroke="#17783e" stroke-width="1.51"/><path d="M1903,-183L1766,-82L1936,-79Z" fill="#88b07e" stroke="#88b07e" stroke-width="1.51"/><path d="M1071,-180L1148,-166L1447,-194Z" fill="#a7d69b" stroke="#a7d69b" stroke-width="1.51"/><path d="M1831,-206L1766,-82L1903,-183Z" fill="#8ab282" stroke="#8ab282" stroke-width="1.51"/><path d="M1778,402L1883,571L1928,465Z" fill="#65a363" stroke="#65a363" stroke-width="1.51"/><path d="M1781,988L1900,1116L1926,1036Z" fill="#26894a" stroke="#26894a" stroke-width="1.51"/><path d="M1781,988L1826,1212L1900,1116Z" fill="#238648" stroke="#238648" stroke-width="1.51"/><path d="M1671,520L1832,619L1883,571Z" fill="#5fa261" stroke="#5fa261" stroke-width="1.51"/><path d="M1778,402L1671,520L1883,571Z" fill="#67a663" stroke="#67a663" stroke-width="1.51"/><path d="M1631,1757L1755,1814L1792,1611Z" fill="#086435" stroke="#086435" stroke-width="1.51"/><path d="M1662,275L1778,402L1815,248Z" fill="#78ae6b" stroke="#78ae6b" stroke-width="1.51"/><path d="M1796,1327L1653,1457L1817,1502Z" fill="#13753c" stroke="#13753c" stroke-width="1.51"/><path d="M1781,988L1664,1214L1826,1212Z" fill="#258747" stroke="#258747" stroke-width="1.51"/><path d="M1832,619L1690,693L1836,746Z" fill="#549e5c" stroke="#549e5c" stroke-width="1.51"/><path d="M1690,693L1733,874L1836,746Z" fill="#4b9c5a" stroke="#4b9c5a" stroke-width="1.51"/><path d="M1664,1214L1796,1327L1826,1212Z" fill="#1e7f42" stroke="#1e7f42" stroke-width="1.51"/><path d="M1640,-143L1766,-82L1831,-206Z" fill="#8db783" stroke="#8db783" stroke-width="1.51"/><path d="M1671,520L1690,693L1832,619Z" fill="#5ea460" stroke="#5ea460" stroke-width="1.51"/><path d="M1766,-82L1627,-23L1766,108Z" fill="#8cb778" stroke="#8cb778" stroke-width="1.51"/><path d="M1664,1214L1676,1321L1796,1327Z" fill="#1d7f41" stroke="#1d7f41" stroke-width="1.51"/><path d="M1676,1321L1653,1457L1796,1327Z" fill="#197a3f" stroke="#197a3f" stroke-width="1.51"/><path d="M1766,108L1662,275L1815,248Z" fill="#7fb16f" stroke="#7fb16f" stroke-width="1.51"/><path d="M1689,1579L1792,1611L1817,1502Z" fill="#076d39" stroke="#076d39" stroke-width="1.51"/><path d="M1689,1579L1631,1757L1792,1611Z" fill="#0b6a38" stroke="#0b6a38" stroke-width="1.51"/><path d="M1653,1457L1689,1579L1817,1502Z" fill="#0f723b" stroke="#0f723b" stroke-width="1.51"/><path d="M1600,968L1664,1214L1781,988Z" fill="#2d914d" stroke="#2d914d" stroke-width="1.51"/><path d="M1631,1757L1504,1810L1755,1814Z" fill="#0e6335" stroke="#0e6335" stroke-width="1.51"/><path d="M1148,-166L1377,-172L1447,-194Z" fill="#a1d195" stroke="#a1d195" stroke-width="1.51"/><path d="M1627,-23L1609,73L1766,108Z" fill="#8bb978" stroke="#8bb978" stroke-width="1.51"/><path d="M1609,73L1662,275L1766,108Z" fill="#85b673" stroke="#85b673" stroke-width="1.51"/><path d="M1612,436L1671,520L1778,402Z" fill="#6fac67" stroke="#6fac67" stroke-width="1.51"/><path d="M1662,275L1612,436L1778,402Z" fill="#75af6a" stroke="#75af6a" stroke-width="1.51"/><path d="M1733,874L1600,968L1781,988Z" fill="#3a9553" stroke="#3a9553" stroke-width="1.51"/><path d="M1600,968L1529,1036L1664,1214Z" fill="#30944e" stroke="#30944e" stroke-width="1.51"/><path d="M1619,889L1600,968L1733,874Z" fill="#3f9a55" stroke="#3f9a55" stroke-width="1.51"/><path d="M1690,693L1619,889L1733,874Z" fill="#489d59" stroke="#489d59" stroke-width="1.51"/><path d="M1640,-143L1627,-23L1766,-82Z" fill="#8fba80" stroke="#8fba80" stroke-width="1.51"/><path d="M1609,73L1495,252L1662,275Z" fill="#86b973" stroke="#86b973" stroke-width="1.51"/><path d="M1529,1036L1478,1183L1664,1214Z" fill="#2d904b" stroke="#2d904b" stroke-width="1.51"/><path d="M1664,1214L1532,1305L1676,1321Z" fill="#228343" stroke="#228343" stroke-width="1.51"/><path d="M1532,1305L1653,1457L1676,1321Z" fill="#1e7e41" stroke="#1e7e41" stroke-width="1.51"/><path d="M1444,1661L1631,1757L1689,1579Z" fill="#116e3a" stroke="#116e3a" stroke-width="1.51"/><path d="M1653,1457L1463,1461L1689,1579Z" fill="#17783e" stroke="#17783e" stroke-width="1.51"/><path d="M1521,588L1436,750L1690,693Z" fill="#5daa62" stroke="#5daa62" stroke-width="1.51"/><path d="M1436,750L1487,823L1690,693Z" fill="#55a860" stroke="#55a860" stroke-width="1.51"/><path d="M1487,823L1619,889L1690,693Z" fill="#4da25c" stroke="#4da25c" stroke-width="1.51"/><path d="M1671,520L1521,588L1690,693Z" fill="#63aa63" stroke="#63aa63" stroke-width="1.51"/><path d="M1463,1461L1444,1661L1689,1579Z" fill="#17783e" stroke="#17783e" stroke-width="1.51"/><path d="M1495,252L1612,436L1662,275Z" fill="#7db66e" stroke="#7db66e" stroke-width="1.51"/><path d="M1612,436L1521,588L1671,520Z" fill="#6cae67" stroke="#6cae67" stroke-width="1.51"/><path d="M1532,1305L1463,1461L1653,1457Z" fill="#1f7f41" stroke="#1f7f41" stroke-width="1.51"/><path d="M1478,1183L1532,1305L1664,1214Z" fill="#288a47" stroke="#288a47" stroke-width="1.51"/><path d="M1476,97L1495,252L1609,73Z" fill="#8cbe78" stroke="#8cbe78" stroke-width="1.51"/><path d="M1495,252L1443,368L1612,436Z" fill="#7eb970" stroke="#7eb970" stroke-width="1.51"/><path d="M1508,-54L1627,-23L1640,-143Z" fill="#93be81" stroke="#93be81" stroke-width="1.51"/><path d="M1444,1661L1504,1810L1631,1757Z" fill="#156c3a" stroke="#156c3a" stroke-width="1.51"/><path d="M1447,-194L1508,-54L1640,-143Z" fill="#96c387" stroke="#96c387" stroke-width="1.51"/><path d="M1508,-54L1609,73L1627,-23Z" fill="#92be7c" stroke="#92be7c" stroke-width="1.51"/><path d="M1508,-54L1476,97L1609,73Z" fill="#92c07b" stroke="#92c07b" stroke-width="1.51"/><path d="M1487,823L1600,968L1619,889Z" fill="#459f58" stroke="#459f58" stroke-width="1.51"/><path d="M1443,368L1521,588L1612,436Z" fill="#74b46b" stroke="#74b46b" stroke-width="1.51"/><path d="M1487,823L1529,1036L1600,968Z" fill="#419e57" stroke="#419e57" stroke-width="1.51"/><path d="M1007,1795L832,1819L1146,1814Z" fill="#3c834f" stroke="#3c834f" stroke-width="1.51"/><path d="M1361,1618L1444,1661L1463,1461Z" fill="#1c7f43" stroke="#1c7f43" stroke-width="1.51"/><path d="M1476,97L1384,139L1495,252Z" fill="#8fc37a" stroke="#8fc37a" stroke-width="1.51"/><path d="M1361,5L1476,97L1508,-54Z" fill="#97c681" stroke="#97c681" stroke-width="1.51"/><path d="M1443,368L1386,575L1521,588Z" fill="#73b86d" stroke="#73b86d" stroke-width="1.51"/><path d="M1386,575L1436,750L1521,588Z" fill="#66b268" stroke="#66b268" stroke-width="1.51"/><path d="M1382,1199L1478,1183L1529,1036Z" fill="#32974f" stroke="#32974f" stroke-width="1.51"/><path d="M1487,823L1285,983L1529,1036Z" fill="#45a55b" stroke="#45a55b" stroke-width="1.51"/><path d="M1298,1319L1463,1461L1532,1305Z" fill="#278a47" stroke="#278a47" stroke-width="1.51"/><path d="M1382,1199L1298,1319L1532,1305Z" fill="#2e914b" stroke="#2e914b" stroke-width="1.51"/><path d="M1478,1183L1382,1199L1532,1305Z" fill="#2d904b" stroke="#2d904b" stroke-width="1.51"/><path d="M1285,983L1382,1199L1529,1036Z" fill="#39a056" stroke="#39a056" stroke-width="1.51"/><path d="M1285,842L1285,983L1487,823Z" fill="#50ad62" stroke="#50ad62" stroke-width="1.51"/><path d="M1447,-194L1377,-172L1508,-54Z" fill="#9bc88d" stroke="#9bc88d" stroke-width="1.51"/><path d="M1386,575L1383,744L1436,750Z" fill="#63b369" stroke="#63b369" stroke-width="1.51"/><path d="M1323,409L1386,575L1443,368Z" fill="#7cbf72" stroke="#7cbf72" stroke-width="1.51"/><path d="M1444,1661L1338,1811L1504,1810Z" fill="#19713d" stroke="#19713d" stroke-width="1.51"/><path d="M1377,-172L1361,5L1508,-54Z" fill="#9bca89" stroke="#9bca89" stroke-width="1.51"/><path d="M1359,256L1443,368L1495,252Z" fill="#87c176" stroke="#87c176" stroke-width="1.51"/><path d="M1384,139L1359,256L1495,252Z" fill="#8ec47a" stroke="#8ec47a" stroke-width="1.51"/><path d="M1298,1319L1294,1437L1463,1461Z" fill="#298c4a" stroke="#298c4a" stroke-width="1.51"/><path d="M1436,750L1383,744L1487,823Z" fill="#58ae64" stroke="#58ae64" stroke-width="1.51"/><path d="M1383,744L1285,842L1487,823Z" fill="#57b065" stroke="#57b065" stroke-width="1.51"/><path d="M1361,5L1384,139L1476,97Z" fill="#96c880" stroke="#96c880" stroke-width="1.51"/><path d="M1294,1437L1361,1618L1463,1461Z" fill="#238646" stroke="#238646" stroke-width="1.51"/><path d="M1285,983L1236,1150L1382,1199Z" fill="#3ca458" stroke="#3ca458" stroke-width="1.51"/><path d="M1359,256L1323,409L1443,368Z" fill="#86c377" stroke="#86c377" stroke-width="1.51"/><path d="M1361,1618L1338,1811L1444,1661Z" fill="#1d7941" stroke="#1d7941" stroke-width="1.51"/><path d="M1202,1062L1236,1150L1285,983Z" fill="#43ab5d" stroke="#43ab5d" stroke-width="1.51"/><path d="M1191,1616L1338,1811L1361,1618Z" fill="#217f45" stroke="#217f45" stroke-width="1.51"/><path d="M1294,1437L1191,1616L1361,1618Z" fill="#258849" stroke="#258849" stroke-width="1.51"/><path d="M1148,-166L1361,5L1377,-172Z" fill="#a2d291" stroke="#a2d291" stroke-width="1.51"/><path d="M1361,5L1192,155L1384,139Z" fill="#99ce83" stroke="#99ce83" stroke-width="1.51"/><path d="M1192,155L1359,256L1384,139Z" fill="#94cc80" stroke="#94cc80" stroke-width="1.51"/><path d="M1323,409L1151,614L1386,575Z" fill="#79c274" stroke="#79c274" stroke-width="1.51"/><path d="M1151,614L1236,716L1386,575Z" fill="#6fc071" stroke="#6fc071" stroke-width="1.51"/><path d="M1236,716L1383,744L1386,575Z" fill="#67b86c" stroke="#67b86c" stroke-width="1.51"/><path d="M1236,1150L1298,1319L1382,1199Z" fill="#369b52" stroke="#369b52" stroke-width="1.51"/><path d="M1236,716L1285,842L1383,744Z" fill="#5fb76a" stroke="#5fb76a" stroke-width="1.51"/><path d="M1148,-166L1144,20L1361,5Z" fill="#a6d690" stroke="#a6d690" stroke-width="1.51"/><path d="M1169,408L1151,614L1323,409Z" fill="#83c879" stroke="#83c879" stroke-width="1.51"/><path d="M1191,1616L1146,1814L1338,1811Z" fill="#277e46" stroke="#277e46" stroke-width="1.51"/><path d="M1134,310L1323,409L1359,256Z" fill="#8ccb7c" stroke="#8ccb7c" stroke-width="1.51"/><path d="M1144,20L1192,155L1361,5Z" fill="#a0d389" stroke="#a0d389" stroke-width="1.51"/><path d="M1134,310L1169,408L1323,409Z" fill="#8dcc7d" stroke="#8dcc7d" stroke-width="1.51"/><path d="M1192,155L1134,310L1359,256Z" fill="#96d082" stroke="#96d082" stroke-width="1.51"/><path d="M1148,1494L1191,1616L1294,1437Z" fill="#2e8e4e" stroke="#2e8e4e" stroke-width="1.51"/><path d="M1076,1291L1131,1356L1236,1150Z" fill="#41a057" stroke="#41a057" stroke-width="1.51"/><path d="M1285,842L1143,878L1285,983Z" fill="#54b466" stroke="#54b466" stroke-width="1.51"/><path d="M1131,1356L1294,1437L1298,1319Z" fill="#32954f" stroke="#32954f" stroke-width="1.51"/><path d="M1236,1150L1131,1356L1298,1319Z" fill="#399c54" stroke="#399c54" stroke-width="1.51"/><path d="M1131,1356L1148,1494L1294,1437Z" fill="#349450" stroke="#349450" stroke-width="1.51"/><path d="M1236,716L1143,878L1285,842Z" fill="#5fb96c" stroke="#5fb96c" stroke-width="1.51"/><path d="M1143,878L1202,1062L1285,983Z" fill="#4fb163" stroke="#4fb163" stroke-width="1.51"/><path d="M1076,1637L1146,1814L1191,1616Z" fill="#31864c" stroke="#31864c" stroke-width="1.51"/><path d="M1151,614L1084,817L1236,716Z" fill="#6fc073" stroke="#6fc073" stroke-width="1.51"/><path d="M1084,817L1143,878L1236,716Z" fill="#66bc6f" stroke="#66bc6f" stroke-width="1.51"/><path d="M1202,1062L1034,1198L1236,1150Z" fill="#47a95d" stroke="#47a95d" stroke-width="1.51"/><path d="M1034,1198L1076,1291L1236,1150Z" fill="#47a55b" stroke="#47a55b" stroke-width="1.51"/><path d="M1072,6L1144,20L1148,-166Z" fill="#adda95" stroke="#adda95" stroke-width="1.51"/><path d="M985,690L1084,817L1151,614Z" fill="#77c577" stroke="#77c577" stroke-width="1.51"/><path d="M1011,556L1151,614L1169,408Z" fill="#87cb7c" stroke="#87cb7c" stroke-width="1.51"/><path d="M1148,1494L1076,1637L1191,1616Z" fill="#338e4f" stroke="#338e4f" stroke-width="1.51"/><path d="M1144,20L1013,129L1192,155Z" fill="#a7d88d" stroke="#a7d88d" stroke-width="1.51"/><path d="M1044,210L1134,310L1192,155Z" fill="#9fd587" stroke="#9fd587" stroke-width="1.51"/><path d="M1143,878L1006,1010L1202,1062Z" fill="#57b567" stroke="#57b567" stroke-width="1.51"/><path d="M1006,1010L1034,1198L1202,1062Z" fill="#51b063" stroke="#51b063" stroke-width="1.51"/><path d="M1070,369L1011,556L1169,408Z" fill="#90cf81" stroke="#90cf81" stroke-width="1.51"/><path d="M1013,129L1044,210L1192,155Z" fill="#a6d88b" stroke="#a6d88b" stroke-width="1.51"/><path d="M1072,6L1013,129L1144,20Z" fill="#addb91" stroke="#addb91" stroke-width="1.51"/><path d="M1076,1637L1007,1795L1146,1814Z" fill="#36854d" stroke="#36854d" stroke-width="1.51"/><path d="M1071,-180L1072,6L1148,-166Z" fill="#b0dc9b" stroke="#b0dc9b" stroke-width="1.51"/><path d="M1131,1356L994,1491L1148,1494Z" fill="#3e9754" stroke="#3e9754" stroke-width="1.51"/><path d="M1134,310L1070,369L1169,408Z" fill="#94d082" stroke="#94d082" stroke-width="1.51"/><path d="M994,1491L1076,1637L1148,1494Z" fill="#3c9353" stroke="#3c9353" stroke-width="1.51"/><path d="M1011,556L985,690L1151,614Z" fill="#83ca7c" stroke="#83ca7c" stroke-width="1.51"/><path d="M1084,817L1006,1010L1143,878Z" fill="#63bb6e" stroke="#63bb6e" stroke-width="1.51"/><path d="M1076,1291L926,1357L1131,1356Z" fill="#48a059" stroke="#48a059" stroke-width="1.51"/><path d="M926,1357L994,1491L1131,1356Z" fill="#479d59" stroke="#479d59" stroke-width="1.51"/><path d="M1044,210L1070,369L1134,310Z" fill="#9dd586" stroke="#9dd586" stroke-width="1.51"/><path d="M468,1733L273,1787L832,1819Z" fill="#65965f" stroke="#65965f" stroke-width="1.51"/><path d="M909,401L1011,556L1070,369Z" fill="#97d385" stroke="#97d385" stroke-width="1.51"/><path d="M1044,210L916,211L1070,369Z" fill="#a6d98b" stroke="#a6d98b" stroke-width="1.51"/><path d="M916,211L909,401L1070,369Z" fill="#a4d98b" stroke="#a4d98b" stroke-width="1.51"/><path d="M906,-205L853,-46L1071,-180Z" fill="#bde3a5" stroke="#bde3a5" stroke-width="1.51"/><path d="M1071,-180L853,-46L1072,6Z" fill="#b7e09d" stroke="#b7e09d" stroke-width="1.51"/><path d="M863,1633L1007,1795L1076,1637Z" fill="#408d53" stroke="#408d53" stroke-width="1.51"/><path d="M849,915L936,992L1084,817Z" fill="#6dc072" stroke="#6dc072" stroke-width="1.51"/><path d="M934,742L849,915L1084,817Z" fill="#75c477" stroke="#75c477" stroke-width="1.51"/><path d="M985,690L934,742L1084,817Z" fill="#79c678" stroke="#79c678" stroke-width="1.51"/><path d="M936,992L1006,1010L1084,817Z" fill="#65bc6e" stroke="#65bc6e" stroke-width="1.51"/><path d="M1034,1198L926,1357L1076,1291Z" fill="#4da55d" stroke="#4da55d" stroke-width="1.51"/><path d="M994,1491L863,1633L1076,1637Z" fill="#439455" stroke="#439455" stroke-width="1.51"/><path d="M1006,1010L873,1181L1034,1198Z" fill="#59b266" stroke="#59b266" stroke-width="1.51"/><path d="M895,122L1013,129L1072,6Z" fill="#b2de93" stroke="#b2de93" stroke-width="1.51"/><path d="M853,-46L895,122L1072,6Z" fill="#b9e298" stroke="#b9e298" stroke-width="1.51"/><path d="M936,992L873,1181L1006,1010Z" fill="#60b96b" stroke="#60b96b" stroke-width="1.51"/><path d="M909,401L872,534L1011,556Z" fill="#98d485" stroke="#98d485" stroke-width="1.51"/><path d="M873,1181L926,1357L1034,1198Z" fill="#55aa62" stroke="#55aa62" stroke-width="1.51"/><path d="M1013,129L916,211L1044,210Z" fill="#acdc90" stroke="#acdc90" stroke-width="1.51"/><path d="M926,1357L891,1417L994,1491Z" fill="#4d9f5c" stroke="#4d9f5c" stroke-width="1.51"/><path d="M604,1728L468,1733L832,1819Z" fill="#5e945c" stroke="#5e945c" stroke-width="1.51"/><path d="M863,1633L832,1819L1007,1795Z" fill="#478c54" stroke="#478c54" stroke-width="1.51"/><path d="M872,534L985,690L1011,556Z" fill="#8dcf81" stroke="#8dcf81" stroke-width="1.51"/><path d="M895,122L916,211L1013,129Z" fill="#b2de93" stroke="#b2de93" stroke-width="1.51"/><path d="M872,534L934,742L985,690Z" fill="#89cd7f" stroke="#89cd7f" stroke-width="1.51"/><path d="M891,1417L782,1516L994,1491Z" fill="#509e5c" stroke="#509e5c" stroke-width="1.51"/><path d="M782,1516L863,1633L994,1491Z" fill="#4e9a5a" stroke="#4e9a5a" stroke-width="1.51"/><path d="M760,1732L832,1819L863,1633Z" fill="#4f9057" stroke="#4f9057" stroke-width="1.51"/><path d="M710,574L682,670L872,534Z" fill="#9fd788" stroke="#9fd788" stroke-width="1.51"/><path d="M784,-196L853,-46L906,-205Z" fill="#c5e7a9" stroke="#c5e7a9" stroke-width="1.51"/><path d="M778,320L909,401L916,211Z" fill="#aedd8f" stroke="#aedd8f" stroke-width="1.51"/><path d="M873,1181L766,1322L926,1357Z" fill="#5cab62" stroke="#5cab62" stroke-width="1.51"/><path d="M872,534L682,670L934,742Z" fill="#93d183" stroke="#93d183" stroke-width="1.51"/><path d="M682,670L790,836L934,742Z" fill="#8bce80" stroke="#8bce80" stroke-width="1.51"/><path d="M790,836L849,915L934,742Z" fill="#7ec87a" stroke="#7ec87a" stroke-width="1.51"/><path d="M707,1000L873,1181L936,992Z" fill="#6abd6e" stroke="#6abd6e" stroke-width="1.51"/><path d="M849,915L707,1000L936,992Z" fill="#73c274" stroke="#73c274" stroke-width="1.51"/><path d="M707,1000L707,1151L873,1181Z" fill="#6ebb6f" stroke="#6ebb6f" stroke-width="1.51"/><path d="M853,-46L745,87L895,122Z" fill="#c1e59b" stroke="#c1e59b" stroke-width="1.51"/><path d="M778,320L783,383L909,401Z" fill="#addd8e" stroke="#addd8e" stroke-width="1.51"/><path d="M766,1322L891,1417L926,1357Z" fill="#58a660" stroke="#58a660" stroke-width="1.51"/><path d="M783,383L872,534L909,401Z" fill="#a4d98a" stroke="#a4d98a" stroke-width="1.51"/><path d="M895,122L745,87L916,211Z" fill="#bae296" stroke="#bae296" stroke-width="1.51"/><path d="M745,87L778,320L916,211Z" fill="#bae295" stroke="#bae295" stroke-width="1.51"/><path d="M784,-196L768,-67L853,-46Z" fill="#c9e8a7" stroke="#c9e8a7" stroke-width="1.51"/><path d="M766,1322L782,1516L891,1417Z" fill="#5aa45f" stroke="#5aa45f" stroke-width="1.51"/><path d="M768,-67L745,87L853,-46Z" fill="#c7e8a0" stroke="#c7e8a0" stroke-width="1.51"/><path d="M782,1516L726,1575L863,1633Z" fill="#559c5d" stroke="#559c5d" stroke-width="1.51"/><path d="M783,383L710,574L872,534Z" fill="#a5d98a" stroke="#a5d98a" stroke-width="1.51"/><path d="M707,1151L766,1322L873,1181Z" fill="#66b368" stroke="#66b368" stroke-width="1.51"/><path d="M726,1575L760,1732L863,1633Z" fill="#54985a" stroke="#54985a" stroke-width="1.51"/><path d="M790,836L707,1000L849,915Z" fill="#7cc778" stroke="#7cc778" stroke-width="1.51"/><path d="M760,1732L604,1728L832,1819Z" fill="#569159" stroke="#569159" stroke-width="1.51"/><path d="M581,1322L629,1510L766,1322Z" fill="#69ac66" stroke="#69ac66" stroke-width="1.51"/><path d="M594,-51L745,87L768,-67Z" fill="#cfeba3" stroke="#cfeba3" stroke-width="1.51"/><path d="M745,87L534,253L778,320Z" fill="#c4e799" stroke="#c4e799" stroke-width="1.51"/><path d="M766,1322L629,1510L782,1516Z" fill="#61a662" stroke="#61a662" stroke-width="1.51"/><path d="M611,433L710,574L783,383Z" fill="#afde8f" stroke="#afde8f" stroke-width="1.51"/><path d="M594,-51L768,-67L784,-196Z" fill="#d0ebaa" stroke="#d0ebaa" stroke-width="1.51"/><path d="M550,-197L594,-51L784,-196Z" fill="#d6eeb0" stroke="#d6eeb0" stroke-width="1.51"/><path d="M682,670L616,715L790,836Z" fill="#95d284" stroke="#95d284" stroke-width="1.51"/><path d="M616,715L640,905L790,836Z" fill="#8ecf81" stroke="#8ecf81" stroke-width="1.51"/><path d="M640,905L707,1000L790,836Z" fill="#83c97b" stroke="#83c97b" stroke-width="1.51"/><path d="M579,69L534,253L745,87Z" fill="#ceeb9f" stroke="#ceeb9f" stroke-width="1.51"/><path d="M726,1575L604,1728L760,1732Z" fill="#5b985d" stroke="#5b985d" stroke-width="1.51"/><path d="M707,1151L581,1322L766,1322Z" fill="#6db369" stroke="#6db369" stroke-width="1.51"/><path d="M778,320L611,433L783,383Z" fill="#b4e091" stroke="#b4e091" stroke-width="1.51"/><path d="M629,1510L726,1575L782,1516Z" fill="#5ea260" stroke="#5ea260" stroke-width="1.51"/><path d="M622,1583L604,1728L726,1575Z" fill="#609e60" stroke="#609e60" stroke-width="1.51"/><path d="M534,253L611,433L778,320Z" fill="#bfe596" stroke="#bfe596" stroke-width="1.51"/><path d="M594,-51L579,69L745,87Z" fill="#d2eda2" stroke="#d2eda2" stroke-width="1.51"/><path d="M544,1181L581,1322L707,1151Z" fill="#75b96e" stroke="#75b96e" stroke-width="1.51"/><path d="M531,1050L707,1151L707,1000Z" fill="#7bc475" stroke="#7bc475" stroke-width="1.51"/><path d="M611,433L570,585L710,574Z" fill="#afde8f" stroke="#afde8f" stroke-width="1.51"/><path d="M629,1510L622,1583L726,1575Z" fill="#62a261" stroke="#62a261" stroke-width="1.51"/><path d="M531,1050L544,1181L707,1151Z" fill="#7cc073" stroke="#7cc073" stroke-width="1.51"/><path d="M570,585L682,670L710,574Z" fill="#a6da8a" stroke="#a6da8a" stroke-width="1.51"/><path d="M640,905L531,1050L707,1000Z" fill="#84c97a" stroke="#84c97a" stroke-width="1.51"/><path d="M570,585L616,715L682,670Z" fill="#a3d98a" stroke="#a3d98a" stroke-width="1.51"/><path d="M488,1666L604,1728L622,1583Z" fill="#669e61" stroke="#669e61" stroke-width="1.51"/><path d="M581,1322L447,1423L629,1510Z" fill="#70ad68" stroke="#70ad68" stroke-width="1.51"/><path d="M484,739L383,902L640,905Z" fill="#9ad486" stroke="#9ad486" stroke-width="1.51"/><path d="M383,902L412,982L640,905Z" fill="#94d182" stroke="#94d182" stroke-width="1.51"/><path d="M412,982L531,1050L640,905Z" fill="#8ccc7e" stroke="#8ccc7e" stroke-width="1.51"/><path d="M616,715L484,739L640,905Z" fill="#9ad486" stroke="#9ad486" stroke-width="1.51"/><path d="M534,253L419,299L611,433Z" fill="#c8e99b" stroke="#c8e99b" stroke-width="1.51"/><path d="M447,1423L488,1666L622,1583Z" fill="#6da666" stroke="#6da666" stroke-width="1.51"/><path d="M447,1423L622,1583L629,1510Z" fill="#6ca866" stroke="#6ca866" stroke-width="1.51"/><path d="M544,1181L478,1272L581,1322Z" fill="#79b86e" stroke="#79b86e" stroke-width="1.51"/><path d="M419,299L424,450L611,433Z" fill="#c5e899" stroke="#c5e899" stroke-width="1.51"/><path d="M424,450L570,585L611,433Z" fill="#b9e394" stroke="#b9e394" stroke-width="1.51"/><path d="M570,585L484,739L616,715Z" fill="#a6da8b" stroke="#a6da8b" stroke-width="1.51"/><path d="M475,595L484,739L570,585Z" fill="#addd8e" stroke="#addd8e" stroke-width="1.51"/><path d="M424,450L475,595L570,585Z" fill="#b8e293" stroke="#b8e293" stroke-width="1.51"/><path d="M400,133L534,253L579,69Z" fill="#d5eea2" stroke="#d5eea2" stroke-width="1.51"/><path d="M392,-33L579,69L594,-51Z" fill="#dcf1a9" stroke="#dcf1a9" stroke-width="1.51"/><path d="M550,-197L392,-33L594,-51Z" fill="#dff2b0" stroke="#dff2b0" stroke-width="1.51"/><path d="M488,1666L468,1733L604,1728Z" fill="#689b61" stroke="#689b61" stroke-width="1.51"/><path d="M388,-165L392,-33L550,-197Z" fill="#e4f5b6" stroke="#e4f5b6" stroke-width="1.51"/><path d="M318,-237L388,-165L550,-197Z" fill="#e7f5bd" stroke="#e7f5bd" stroke-width="1.51"/><path d="M392,-33L400,133L579,69Z" fill="#def2a8" stroke="#def2a8" stroke-width="1.51"/><path d="M478,1272L447,1423L581,1322Z" fill="#77b36c" stroke="#77b36c" stroke-width="1.51"/><path d="M531,1050L402,1221L544,1181Z" fill="#82c276" stroke="#82c276" stroke-width="1.51"/><path d="M311,1138L402,1221L531,1050Z" fill="#89c579" stroke="#89c579" stroke-width="1.51"/><path d="M402,1221L478,1272L544,1181Z" fill="#80bd72" stroke="#80bd72" stroke-width="1.51"/><path d="M447,1423L285,1451L488,1666Z" fill="#77ad6b" stroke="#77ad6b" stroke-width="1.51"/><path d="M412,982L311,1138L531,1050Z" fill="#8ecb7d" stroke="#8ecb7d" stroke-width="1.51"/><path d="M400,133L419,299L534,253Z" fill="#d5eea1" stroke="#d5eea1" stroke-width="1.51"/><path d="M285,1451L247,1615L488,1666Z" fill="#79ab6b" stroke="#79ab6b" stroke-width="1.51"/><path d="M-21,1727L-212,1799L273,1787Z" fill="#80a172" stroke="#80a172" stroke-width="1.51"/><path d="M424,450L312,515L475,595Z" fill="#c1e697" stroke="#c1e697" stroke-width="1.51"/><path d="M340,1283L447,1423L478,1272Z" fill="#7eb76f" stroke="#7eb76f" stroke-width="1.51"/><path d="M475,595L249,758L484,739Z" fill="#b0de90" stroke="#b0de90" stroke-width="1.51"/><path d="M249,758L383,902L484,739Z" fill="#a8da8d" stroke="#a8da8d" stroke-width="1.51"/><path d="M247,1615L468,1733L488,1666Z" fill="#72a266" stroke="#72a266" stroke-width="1.51"/><path d="M312,515L249,758L475,595Z" fill="#bae395" stroke="#bae395" stroke-width="1.51"/><path d="M402,1221L340,1283L478,1272Z" fill="#83bc73" stroke="#83bc73" stroke-width="1.51"/><path d="M247,1615L273,1787L468,1733Z" fill="#75a167" stroke="#75a167" stroke-width="1.51"/><path d="M249,758L254,840L383,902Z" fill="#a9db8e" stroke="#a9db8e" stroke-width="1.51"/><path d="M400,133L303,240L419,299Z" fill="#dbf1a4" stroke="#dbf1a4" stroke-width="1.51"/><path d="M392,-33L287,18L400,133Z" fill="#e6f5ac" stroke="#e6f5ac" stroke-width="1.51"/><path d="M419,299L272,448L424,450Z" fill="#cdeb9d" stroke="#cdeb9d" stroke-width="1.51"/><path d="M340,1283L285,1451L447,1423Z" fill="#80b570" stroke="#80b570" stroke-width="1.51"/><path d="M257,1002L311,1138L412,982Z" fill="#95cf81" stroke="#95cf81" stroke-width="1.51"/><path d="M303,240L272,448L419,299Z" fill="#d5eea1" stroke="#d5eea1" stroke-width="1.51"/><path d="M272,448L312,515L424,450Z" fill="#c9e99b" stroke="#c9e99b" stroke-width="1.51"/><path d="M383,902L257,1002L412,982Z" fill="#9bd285" stroke="#9bd285" stroke-width="1.51"/><path d="M388,-165L287,18L392,-33Z" fill="#e9f7b3" stroke="#e9f7b3" stroke-width="1.51"/><path d="M231,151L303,240L400,133Z" fill="#e1f3a9" stroke="#e1f3a9" stroke-width="1.51"/><path d="M287,18L231,151L400,133Z" fill="#e5f5ac" stroke="#e5f5ac" stroke-width="1.51"/><path d="M311,1138L340,1283L402,1221Z" fill="#89c177" stroke="#89c177" stroke-width="1.51"/><path d="M164,-40L287,18L388,-165Z" fill="#edf8b6" stroke="#edf8b6" stroke-width="1.51"/><path d="M152,579L249,758L312,515Z" fill="#c0e599" stroke="#c0e599" stroke-width="1.51"/><path d="M318,-237L164,-40L388,-165Z" fill="#eef9bd" stroke="#eef9bd" stroke-width="1.51"/><path d="M254,840L257,1002L383,902Z" fill="#a1d689" stroke="#a1d689" stroke-width="1.51"/><path d="M118,1710L-21,1727L273,1787Z" fill="#7ea26d" stroke="#7ea26d" stroke-width="1.51"/><path d="M133,307L272,448L303,240Z" fill="#daf0a5" stroke="#daf0a5" stroke-width="1.51"/><path d="M169,-219L164,-40L318,-237Z" fill="#f2fac1" stroke="#f2fac1" stroke-width="1.51"/><path d="M94,1271L285,1451L340,1283Z" fill="#88bb75" stroke="#88bb75" stroke-width="1.51"/><path d="M311,1138L190,1136L340,1283Z" fill="#8fc57b" stroke="#8fc57b" stroke-width="1.51"/><path d="M190,1136L94,1271L340,1283Z" fill="#90c37b" stroke="#90c37b" stroke-width="1.51"/><path d="M257,1002L190,1136L311,1138Z" fill="#95cd81" stroke="#95cd81" stroke-width="1.51"/><path d="M152,579L153,747L249,758Z" fill="#bce398" stroke="#bce398" stroke-width="1.51"/><path d="M247,1615L118,1710L273,1787Z" fill="#7ba46c" stroke="#7ba46c" stroke-width="1.51"/><path d="M94,1271L106,1472L285,1451Z" fill="#8ab876" stroke="#8ab876" stroke-width="1.51"/><path d="M151,1597L247,1615L285,1451Z" fill="#7fae70" stroke="#7fae70" stroke-width="1.51"/><path d="M272,448L152,579L312,515Z" fill="#caea9d" stroke="#caea9d" stroke-width="1.51"/><path d="M254,840L140,896L257,1002Z" fill="#a6d88c" stroke="#a6d88c" stroke-width="1.51"/><path d="M231,151L133,307L303,240Z" fill="#e2f4a9" stroke="#e2f4a9" stroke-width="1.51"/><path d="M133,307L101,435L272,448Z" fill="#d8efa4" stroke="#d8efa4" stroke-width="1.51"/><path d="M106,1472L151,1597L285,1451Z" fill="#84b272" stroke="#84b272" stroke-width="1.51"/><path d="M125,108L231,151L287,18Z" fill="#ebf7af" stroke="#ebf7af" stroke-width="1.51"/><path d="M164,-40L125,108L287,18Z" fill="#eff9b3" stroke="#eff9b3" stroke-width="1.51"/><path d="M101,435L152,579L272,448Z" fill="#d0eca1" stroke="#d0eca1" stroke-width="1.51"/><path d="M151,1597L118,1710L247,1615Z" fill="#7fa96f" stroke="#7fa96f" stroke-width="1.51"/><path d="M249,758L153,747L254,840Z" fill="#b2df93" stroke="#b2df93" stroke-width="1.51"/><path d="M120,994L190,1136L257,1002Z" fill="#9bd286" stroke="#9bd286" stroke-width="1.51"/><path d="M140,896L120,994L257,1002Z" fill="#a4d68b" stroke="#a4d68b" stroke-width="1.51"/><path d="M153,747L140,896L254,840Z" fill="#b0dd92" stroke="#b0dd92" stroke-width="1.51"/><path d="M94,1271L32,1361L106,1472Z" fill="#8fbc7a" stroke="#8fbc7a" stroke-width="1.51"/><path d="M125,108L133,307L231,151Z" fill="#e8f6ad" stroke="#e8f6ad" stroke-width="1.51"/><path d="M152,579L-9,604L153,747Z" fill="#c5e79d" stroke="#c5e79d" stroke-width="1.51"/><path d="M27,20L125,108L164,-40Z" fill="#f3fbb6" stroke="#f3fbb6" stroke-width="1.51"/><path d="M-10,-202L164,-40L169,-219Z" fill="#f7fcc4" stroke="#f7fcc4" stroke-width="1.51"/><path d="M120,994L-38,1185L190,1136Z" fill="#9dcf86" stroke="#9dcf86" stroke-width="1.51"/><path d="M-38,1185L94,1271L190,1136Z" fill="#98c881" stroke="#98c881" stroke-width="1.51"/><path d="M-68,1062L-38,1185L120,994Z" fill="#a1d28c" stroke="#a1d28c" stroke-width="1.51"/><path d="M125,108L-31,274L133,307Z" fill="#e9f7af" stroke="#e9f7af" stroke-width="1.51"/><path d="M101,435L30,466L152,579Z" fill="#d4eda3" stroke="#d4eda3" stroke-width="1.51"/><path d="M-63,822L140,896L153,747Z" fill="#b5df96" stroke="#b5df96" stroke-width="1.51"/><path d="M-9,604L-43,658L153,747Z" fill="#c5e7a0" stroke="#c5e7a0" stroke-width="1.51"/><path d="M-10,-202L27,20L164,-40Z" fill="#f9fcc0" stroke="#f9fcc0" stroke-width="1.51"/><path d="M-36,1638L118,1710L151,1597Z" fill="#83aa72" stroke="#83aa72" stroke-width="1.51"/><path d="M106,1472L-36,1638L151,1597Z" fill="#87b074" stroke="#87b074" stroke-width="1.51"/><path d="M30,466L-9,604L152,579Z" fill="#d0eca2" stroke="#d0eca2" stroke-width="1.51"/><path d="M-43,658L-63,822L153,747Z" fill="#bee39e" stroke="#bee39e" stroke-width="1.51"/><path d="M-60,1496L-36,1638L106,1472Z" fill="#89b37a" stroke="#89b37a" stroke-width="1.51"/><path d="M-71,132L-31,274L125,108Z" fill="#eff9b6" stroke="#eff9b6" stroke-width="1.51"/><path d="M-31,274L101,435L133,307Z" fill="#e2f4aa" stroke="#e2f4aa" stroke-width="1.51"/><path d="M-63,822L120,994L140,896Z" fill="#aedb92" stroke="#aedb92" stroke-width="1.51"/><path d="M-31,274L30,466L101,435Z" fill="#def2ab" stroke="#def2ab" stroke-width="1.51"/><path d="M-36,1638L-21,1727L118,1710Z" fill="#83a774" stroke="#83a774" stroke-width="1.51"/><path d="M-63,822L-68,1062L120,994Z" fill="#abd993" stroke="#abd993" stroke-width="1.51"/><path d="M27,20L-71,132L125,108Z" fill="#f3fab8" stroke="#f3fab8" stroke-width="1.51"/><path d="M32,1361L-60,1496L106,1472Z" fill="#8db87b" stroke="#8db87b" stroke-width="1.51"/><path d="M-10,-202L-113,-17L27,20Z" fill="#fafdc6" stroke="#fafdc6" stroke-width="1.51"/><path d="M-38,1185L32,1361L94,1271Z" fill="#95c380" stroke="#95c380" stroke-width="1.51"/><path d="M-143,1019L-68,1062L-63,822Z" fill="#abd999" stroke="#abd999" stroke-width="1.51"/><path d="M-111,404L-179,567L-9,604Z" fill="#d5eeaf" stroke="#d5eeaf" stroke-width="1.51"/><path d="M-111,404L-9,604L30,466Z" fill="#d7efab" stroke="#d7efab" stroke-width="1.51"/><path d="M-31,274L-111,404L30,466Z" fill="#e0f3b0" stroke="#e0f3b0" stroke-width="1.51"/><path d="M-129,1439L-60,1496L32,1361Z" fill="#8eb981" stroke="#8eb981" stroke-width="1.51"/><path d="M-38,1185L-157,1295L32,1361Z" fill="#96c386" stroke="#96c386" stroke-width="1.51"/><path d="M-157,1295L-129,1439L32,1361Z" fill="#92bd85" stroke="#92bd85" stroke-width="1.51"/><path d="M-113,-17L-71,132L27,20Z" fill="#f6fcc0" stroke="#f6fcc0" stroke-width="1.51"/><path d="M-159,765L-63,822L-43,658Z" fill="#bfe4a5" stroke="#bfe4a5" stroke-width="1.51"/><path d="M-71,132L-111,244L-31,274Z" fill="#edf8b9" stroke="#edf8b9" stroke-width="1.51"/><path d="M-199,-199L-113,-17L-10,-202Z" fill="#fcfed2" stroke="#fcfed2" stroke-width="1.51"/><path d="M-179,567L-43,658L-9,604Z" fill="#cceaaa" stroke="#cceaaa" stroke-width="1.51"/><path d="M-113,-17L-148,116L-71,132Z" fill="#f5fcc3" stroke="#f5fcc3" stroke-width="1.51"/><path d="M-201,824L-143,1019L-63,822Z" fill="#b3dda1" stroke="#b3dda1" stroke-width="1.51"/><path d="M-170,1205L-157,1295L-38,1185Z" fill="#9ac78d" stroke="#9ac78d" stroke-width="1.51"/><path d="M-60,1496L-217,1658L-36,1638Z" fill="#88b07f" stroke="#88b07f" stroke-width="1.51"/><path d="M-111,244L-111,404L-31,274Z" fill="#e7f5b7" stroke="#e7f5b7" stroke-width="1.51"/><path d="M-36,1638L-217,1658L-21,1727Z" fill="#85aa7c" stroke="#85aa7c" stroke-width="1.51"/><path d="M-217,1658L-212,1799L-21,1727Z" fill="#84a67e" stroke="#84a67e" stroke-width="1.51"/><path d="M-68,1062L-170,1205L-38,1185Z" fill="#9ecd8f" stroke="#9ecd8f" stroke-width="1.51"/><path d="M-179,567L-159,765L-43,658Z" fill="#c8e8ab" stroke="#c8e8ab" stroke-width="1.51"/><path d="M-148,116L-111,244L-71,132Z" fill="#f1fabe" stroke="#f1fabe" stroke-width="1.51"/><path d="M-143,1019L-170,1205L-68,1062Z" fill="#a1d295" stroke="#a1d295" stroke-width="1.51"/><path d="M-129,1439L-217,1658L-60,1496Z" fill="#8bb484" stroke="#8bb484" stroke-width="1.51"/><path d="M-159,765L-201,824L-63,822Z" fill="#bbe2a7" stroke="#bbe2a7" stroke-width="1.51"/><path d="M-179,567L-111,404L-111,244Z" fill="#dff2b6" stroke="#dff2b6" stroke-width="1.51"/><path d="M-148,116L-179,567L-111,244Z" fill="#e8f6bb" stroke="#e8f6bb" stroke-width="1.51"/><path d="M-199,-199L-148,116L-113,-17Z" fill="#fbfdcc" stroke="#fbfdcc" stroke-width="1.51"/><path d="M-157,1295L-217,1658L-129,1439Z" fill="#8fb887" stroke="#8fb887" stroke-width="1.51"/><path d="M-179,567L-201,824L-159,765Z" fill="#c3e5ad" stroke="#c3e5ad" stroke-width="1.51"/><path d="M-201,824L-170,1205L-143,1019Z" fill="#a8d79d" stroke="#a8d79d" stroke-width="1.51"/><path d="M-199,-199L-179,567L-148,116Z" fill="#f1fac4" stroke="#f1fac4" stroke-width="1.51"/><path d="M-170,1205L-217,1658L-157,1295Z" fill="#92bc8b" stroke="#92bc8b" stroke-width="1.51"/><path d="M-201,824L-217,1658L-170,1205Z" fill="#9bc892" stroke="#9bc892" stroke-width="1.51"/><path d="M-199,-199L-201,824L-179,567Z" fill="#e1f3bb" stroke="#e1f3bb" stroke-width="1.51"/></svg>